<svg width="300" height="300" viewBox="0 0 300 300" fill="none" xmlns="http://www.w3.org/2000/svg">
<path d="M184.909 18.7524C316.794 106.763 274.026 203.474 274.026 203.474C274.026 203.474 311.488 244.929 296.432 281.247C296.432 281.247 280.888 255.879 255.089 255.879C230.152 255.879 215.396 281.247 165.053 281.247C53.0803 281.247 0 189.487 0 189.487C100.911 254.735 169.853 208.499 169.853 208.499C124.291 182.662 27.6557 58.9329 27.6557 58.9329C111.898 129.263 148.253 147.731 148.253 147.731C126.391 130.182 65.4738 44.177 65.4738 44.177C114.223 92.5323 211.121 159.956 211.121 159.956C238.908 85.4449 184.909 18.7524 184.909 18.7524Z" fill="url(#paint0_linear)"/>
<defs>
<linearGradient id="paint0_linear" x1="0" y1="18.7524" x2="299.808" y2="281.247" gradientUnits="userSpaceOnUse">
<stop stop-color="#FF33FF"/>
<stop offset="1" stop-color="#FF4D6A"/>
</linearGradient>
</defs>
</svg>
